<svg width="31" height="27" viewBox="0 0 31 27" fill="none" xmlns="http://www.w3.org/2000/svg">
<path d="M29.6861 8.80559H23.2549L19.6473 0.545001C19.4465 0.0853892 18.9112 -0.124648 18.4515 0.0761861C17.9918 0.276899 17.7819 0.812315 17.9827 1.27199L21.2728 8.80565H9.72725L13.0174 1.27199C13.2181 0.812315 13.0082 0.27696 12.5486 0.0761861C12.0889 -0.124648 11.5535 0.0852682 11.3528 0.545001L7.74519 8.80559H1.31396C0.47266 8.80559 -0.1517 9.56721 0.0323629 10.3689L3.41905 25.1199C3.55353 25.7057 4.08598 26.122 4.70065 26.122H26.2994C26.9141 26.122 27.4465 25.7057 27.581 25.1199L30.9677 10.3689C31.1518 9.56727 30.5273 8.80559 29.6861 8.80559ZM7.91605 11.591C7.79471 11.591 7.67138 11.5665 7.55301 11.5148C7.09334 11.3141 6.88342 10.7788 7.0842 10.319L7.76644 8.75679H9.7485L8.74875 11.0459C8.59974 11.3874 8.26613 11.591 7.91605 11.591ZM10.959 21.2782C10.959 21.7798 10.5524 22.1865 10.0508 22.1865C9.54924 22.1865 9.14261 21.7798 9.14261 21.2782V14.6181C9.14261 14.1165 9.54924 13.7099 10.0508 13.7099C10.5524 13.7099 10.959 14.1165 10.959 14.6181V21.2782ZM16.4082 21.2782C16.4082 21.7798 16.0016 22.1865 15.5 22.1865C14.9985 22.1865 14.5918 21.7798 14.5918 21.2782V14.6181C14.5918 14.1165 14.9985 13.7099 15.5 13.7099C16.0016 13.7099 16.4082 14.1165 16.4082 14.6181V21.2782ZM21.8575 21.2782C21.8575 21.7798 21.4508 22.1865 20.9492 22.1865C20.4477 22.1865 20.041 21.7798 20.041 21.2782V14.6181C20.041 14.1165 20.4477 13.7099 20.9492 13.7099C21.4508 13.7099 21.8575 14.1165 21.8575 14.6181V21.2782ZM23.447 11.5148C23.3287 11.5665 23.2053 11.591 23.084 11.591C22.7339 11.591 22.4003 11.3874 22.2512 11.046L21.2515 8.75685H23.2336L23.9158 10.3191C24.1166 10.7788 23.9067 11.3141 23.447 11.5148Z" fill="#232323"/>
</svg>
