<?xml version="1.0" encoding="UTF-8"?>
<svg xmlns="http://www.w3.org/2000/svg" xmlns:xlink="http://www.w3.org/1999/xlink" width="50px" height="50px" viewBox="0 0 50 50" version="1.1">
<g id="surface1">
<path style=" stroke:none;fill-rule:nonzero;fill:rgb(0%,0%,0.784314%);fill-opacity:1;" d="M 38.769531 49.90625 C 38.632812 49.949219 41.109375 49.988281 44.261719 49.992188 L 50 50 L 0 50 L 5.785156 49.992188 C 8.96875 49.988281 11.460938 49.949219 11.328125 49.910156 C 10.546875 49.671875 9.691406 48.953125 9.292969 48.195312 L 9.03125 47.703125 L 8.984375 15.429688 L 8.269531 15.429688 C 7.339844 15.429688 6.683594 15.226562 6.160156 14.777344 C 5.40625 14.132812 5.375 13.992188 5.375 11.007812 C 5.371094 8.859375 5.398438 8.328125 5.523438 8.03125 C 5.703125 7.601562 6.066406 7.199219 6.542969 6.902344 C 6.878906 6.695312 6.976562 6.6875 11.230469 6.640625 L 15.578125 6.59375 L 15.625 4.589844 C 15.671875 2.695312 15.6875 2.558594 15.929688 2.046875 C 16.390625 1.0625 17.132812 0.421875 18.140625 0.144531 C 18.53125 0.0390625 17.117188 0.015625 9.300781 0.0078125 L 0 0 L 50 0 L 40.699219 0.0078125 C 32.953125 0.015625 31.484375 0.0390625 31.910156 0.140625 C 32.613281 0.3125 33.277344 0.746094 33.710938 1.320312 C 34.320312 2.125 34.390625 2.445312 34.445312 4.664062 L 34.496094 6.640625 L 38.734375 6.640625 C 42.070312 6.640625 43.042969 6.667969 43.289062 6.773438 C 43.753906 6.96875 44.21875 7.394531 44.460938 7.851562 C 44.667969 8.238281 44.679688 8.351562 44.679688 10.984375 L 44.679688 13.71875 L 44.433594 14.15625 C 43.941406 15.027344 43.097656 15.429688 41.746094 15.429688 L 41.117188 15.429688 L 41.0625 47.609375 L 40.851562 48.0625 C 40.46875 48.898438 39.621094 49.648438 38.769531 49.90625 Z M 11.890625 47.160156 C 12.003906 47.226562 16.40625 47.261719 25.039062 47.261719 C 36.984375 47.265625 38.035156 47.253906 38.199219 47.105469 C 38.371094 46.949219 38.378906 46.328125 38.378906 31.1875 L 38.378906 15.429688 L 11.71875 15.429688 L 11.71875 31.246094 C 11.71875 46.203125 11.726562 47.066406 11.890625 47.160156 Z M 8.171875 12.632812 C 8.207031 12.664062 15.820312 12.683594 25.089844 12.671875 L 41.945312 12.648438 L 41.96875 11.011719 L 41.996094 9.375 L 8.105469 9.375 L 8.105469 10.96875 C 8.105469 11.847656 8.132812 12.59375 8.171875 12.632812 Z M 25.773438 43.167969 C 25.1875 43.484375 24.570312 43.421875 24.101562 43.003906 C 24.054688 42.960938 24.011719 42.925781 23.976562 42.886719 C 23.632812 42.539062 23.632812 41.855469 23.632812 32.5 C 23.632812 32.195312 23.632812 31.890625 23.632812 31.570312 C 23.636719 21.507812 23.648438 20.925781 23.8125 20.554688 C 24.027344 20.09375 24.148438 19.984375 24.640625 19.828125 C 25.203125 19.648438 25.820312 19.84375 26.128906 20.300781 L 26.367188 20.648438 L 26.367188 31.539062 C 26.367188 42.152344 26.359375 42.4375 26.175781 42.742188 C 26.070312 42.914062 25.890625 43.105469 25.773438 43.167969 Z M 17.753906 43.160156 C 17.078125 43.574219 16.160156 43.300781 15.796875 42.574219 C 15.636719 42.257812 15.625 41.53125 15.625 31.5625 C 15.625 22.714844 15.648438 20.835938 15.761719 20.570312 C 16.171875 19.578125 17.527344 19.484375 18.136719 20.398438 L 18.359375 20.734375 L 18.359375 31.511719 C 18.359375 32.074219 18.359375 32.605469 18.359375 33.113281 C 18.359375 41.925781 18.359375 42.734375 17.972656 43.03125 C 17.910156 43.078125 17.835938 43.109375 17.753906 43.160156 Z M 33.757812 43.167969 C 33.144531 43.542969 32.304688 43.339844 31.878906 42.714844 C 31.695312 42.4375 31.6875 42.191406 31.6875 31.59375 C 31.6875 20.964844 31.695312 20.746094 31.882812 20.433594 C 32.289062 19.757812 33.25 19.566406 33.894531 20.023438 C 33.957031 20.070312 34.011719 20.101562 34.058594 20.144531 C 34.425781 20.453125 34.425781 21.191406 34.421875 30.328125 C 34.421875 30.734375 34.421875 31.15625 34.421875 31.59375 C 34.421875 41.75 34.414062 42.351562 34.25 42.65625 C 34.152344 42.832031 33.929688 43.0625 33.757812 43.167969 Z M 18.425781 6.574219 C 18.460938 6.609375 21.449219 6.640625 25.066406 6.640625 L 31.640625 6.640625 L 31.640625 4.902344 C 31.640625 3.554688 31.609375 3.121094 31.5 2.972656 C 31.367188 2.789062 31.1875 2.78125 25.046875 2.78125 L 18.734375 2.78125 L 18.546875 3.015625 C 18.378906 3.21875 18.359375 3.414062 18.359375 4.875 C 18.359375 5.773438 18.390625 6.539062 18.425781 6.574219 Z M 18.425781 6.574219 "/>
<path style=" stroke:none;fill-rule:nonzero;fill:rgb(41.568628%,41.568628%,41.568628%);fill-opacity:1;" d="M 34.332031 2.710938 C 34.429688 3.25 34.46875 3.984375 34.46875 5.101562 L 34.472656 5.609375 L 34.445312 4.664062 C 34.425781 3.742188 34.398438 3.148438 34.332031 2.710938 Z M 37.382812 0.015625 C 33.546875 0.0273438 31.800781 0.0585938 31.933594 0.113281 C 32.039062 0.15625 32.140625 0.195312 32.234375 0.242188 C 32.128906 0.203125 32.019531 0.167969 31.910156 0.140625 C 31.550781 0.0546875 32.523438 0.0234375 37.382812 0.015625 Z M 17.929688 0.210938 C 18.003906 0.175781 18.082031 0.144531 18.164062 0.113281 C 18.289062 0.0625 16.722656 0.03125 13.28125 0.015625 C 17.613281 0.0273438 18.453125 0.0585938 18.140625 0.144531 C 18.070312 0.164062 18 0.1875 17.929688 0.210938 Z M 33.269531 0.847656 C 33.546875 1.078125 33.765625 1.335938 33.945312 1.648438 C 33.878906 1.546875 33.800781 1.4375 33.710938 1.320312 C 33.582031 1.148438 33.433594 0.992188 33.269531 0.847656 Z M 15.929688 2.046875 C 15.917969 2.074219 15.90625 2.097656 15.894531 2.125 C 15.90625 2.09375 15.917969 2.070312 15.929688 2.039062 C 16.117188 1.644531 16.320312 1.328125 16.585938 1.0625 C 16.328125 1.335938 16.105469 1.664062 15.929688 2.046875 Z M 15.929688 2.046875 "/>
<path style=" stroke:none;fill-rule:nonzero;fill:rgb(99.607843%,99.607843%,99.607843%);fill-opacity:1;" d="M 0 25 L 0 0 L 9.203125 0.0078125 C 15.488281 0.0117188 18.332031 0.0429688 18.164062 0.113281 C 16.9375 0.605469 16.375 1.09375 15.929688 2.039062 C 15.6875 2.5625 15.671875 2.6875 15.625 4.589844 L 15.578125 6.59375 L 11.230469 6.640625 C 6.976562 6.6875 6.878906 6.695312 6.542969 6.902344 C 6.066406 7.199219 5.703125 7.601562 5.523438 8.03125 C 5.398438 8.328125 5.371094 8.859375 5.375 11.007812 C 5.375 13.992188 5.40625 14.132812 6.160156 14.777344 C 6.683594 15.226562 7.339844 15.429688 8.269531 15.429688 L 8.984375 15.429688 L 9.03125 47.703125 L 9.292969 48.195312 C 9.691406 48.953125 10.546875 49.671875 11.328125 49.910156 C 11.460938 49.949219 8.96875 49.988281 5.785156 49.992188 L 0 50 Z M 38.769531 49.90625 C 39.621094 49.648438 40.46875 48.898438 40.851562 48.0625 L 41.0625 47.609375 L 41.117188 15.429688 L 41.746094 15.429688 C 43.097656 15.429688 43.941406 15.027344 44.433594 14.15625 L 44.679688 13.71875 L 44.679688 10.984375 C 44.679688 8.351562 44.667969 8.238281 44.460938 7.851562 C 44.21875 7.394531 43.753906 6.96875 43.289062 6.773438 C 43.042969 6.667969 42.070312 6.640625 38.722656 6.640625 L 34.472656 6.640625 L 34.46875 5.101562 C 34.46875 3.3125 34.371094 2.5 34.089844 1.917969 C 33.671875 1.058594 33.105469 0.585938 31.933594 0.113281 C 31.765625 0.0429688 34.59375 0.0117188 40.84375 0.0078125 L 50 0 L 50 50 L 44.261719 49.992188 C 41.109375 49.988281 38.632812 49.949219 38.769531 49.90625 Z M 11.890625 47.160156 C 11.726562 47.066406 11.71875 46.203125 11.71875 31.246094 L 11.71875 15.429688 L 38.378906 15.429688 L 38.378906 31.1875 C 38.378906 46.328125 38.371094 46.949219 38.199219 47.105469 C 38.035156 47.253906 36.984375 47.265625 25.039062 47.261719 C 16.40625 47.261719 12.003906 47.226562 11.890625 47.160156 Z M 25.773438 43.167969 C 25.890625 43.105469 26.070312 42.914062 26.175781 42.742188 C 26.359375 42.4375 26.367188 42.152344 26.367188 31.539062 L 26.367188 20.648438 L 26.128906 20.300781 C 25.820312 19.84375 25.203125 19.648438 24.640625 19.828125 C 24.148438 19.984375 24.027344 20.09375 23.8125 20.554688 C 23.648438 20.925781 23.636719 21.507812 23.632812 31.570312 C 23.632812 42.910156 23.617188 42.574219 24.101562 43.003906 C 24.570312 43.421875 25.1875 43.484375 25.773438 43.167969 Z M 17.753906 43.160156 C 18.390625 42.773438 18.359375 43.382812 18.359375 31.511719 L 18.359375 20.734375 L 18.136719 20.398438 C 17.527344 19.484375 16.171875 19.578125 15.761719 20.570312 C 15.648438 20.835938 15.625 22.714844 15.625 31.5625 C 15.625 41.53125 15.636719 42.257812 15.796875 42.574219 C 16.160156 43.300781 17.078125 43.574219 17.753906 43.160156 Z M 33.757812 43.167969 C 33.929688 43.0625 34.152344 42.832031 34.25 42.65625 C 34.414062 42.351562 34.421875 41.75 34.421875 31.59375 C 34.421875 19.949219 34.445312 20.417969 33.894531 20.023438 C 33.25 19.566406 32.289062 19.757812 31.882812 20.433594 C 31.695312 20.746094 31.6875 20.964844 31.6875 31.59375 C 31.6875 42.191406 31.695312 42.4375 31.878906 42.714844 C 32.304688 43.339844 33.144531 43.542969 33.757812 43.167969 Z M 8.171875 12.632812 C 8.132812 12.59375 8.105469 11.847656 8.105469 10.96875 L 8.105469 9.375 L 41.996094 9.375 L 41.96875 11.011719 L 41.945312 12.648438 L 25.089844 12.671875 C 15.820312 12.683594 8.207031 12.664062 8.171875 12.632812 Z M 18.425781 6.574219 C 18.390625 6.539062 18.359375 5.773438 18.359375 4.875 C 18.359375 3.414062 18.378906 3.21875 18.546875 3.015625 L 18.734375 2.78125 L 25.046875 2.78125 C 31.1875 2.78125 31.367188 2.789062 31.5 2.972656 C 31.609375 3.121094 31.640625 3.554688 31.640625 4.902344 L 31.640625 6.640625 L 25.066406 6.640625 C 21.449219 6.640625 18.460938 6.609375 18.425781 6.574219 Z M 18.425781 6.574219 "/>
</g>
</svg>
