<svg xmlns="http://www.w3.org/2000/svg" width="512" height="512" viewBox="0 0 512 512">
<g>
<path d="M 397.00 511.06 C395.62,511.48 420.94,511.87 453.25,511.91 L 512.00 512.00 L 0.00 512.00 L 59.25 511.91 C91.84,511.87 117.37,511.48 115.99,511.07 C108.00,508.63 99.24,501.26 95.16,493.54 L 92.50 488.50 L 91.98 158.00 L 84.67 158.00 C75.16,158.00 68.44,155.93 63.07,151.33 C55.35,144.72 55.05,143.28 55.02,112.72 C55.00,90.73 55.28,85.27 56.55,82.22 C58.38,77.85 62.12,73.72 67.00,70.68 C70.43,68.55 71.45,68.49 115.00,68.00 L 159.50 67.50 L 160.01 47.00 C160.49,27.58 160.65,26.21 163.11,20.95 C167.83,10.86 175.44,4.32 185.78,1.48 C189.75,0.39 175.29,0.16 95.25,0.09 L 0.00 0.00 L 512.00 0.00 L 416.75 0.09 C337.45,0.16 322.38,0.38 326.75,1.44 C333.98,3.19 340.76,7.63 345.22,13.53 C351.45,21.77 352.17,25.04 352.74,47.75 L 353.25 68.00 L 396.66 68.00 C430.82,68.00 440.75,68.29 443.28,69.35 C448.04,71.34 452.80,75.71 455.29,80.38 C457.42,84.35 457.50,85.54 457.50,112.50 L 457.50 140.50 L 455.00 144.95 C449.98,153.89 441.31,158.00 427.47,158.00 L 421.03 158.00 L 420.50 487.50 L 418.34 492.18 C414.39,500.73 405.72,508.40 397.00,511.06 ZM 121.75 482.92 C122.91,483.60 168.00,483.95 256.42,483.97 C378.73,484.00 389.49,483.87 391.17,482.35 C392.93,480.75 393.00,474.38 393.00,319.35 L 393.00 158.00 L 120.00 158.00 L 120.00 319.95 C120.00,473.13 120.09,481.96 121.75,482.92 ZM 83.67 129.34 C84.04,129.70 162.00,129.89 256.92,129.75 L 429.50 129.50 L 429.77 112.75 L 430.05 96.00 L 83.00 96.00 L 83.00 112.33 C83.00,121.32 83.30,128.97 83.67,129.34 ZM 263.91 442.05 C257.91,445.26 251.61,444.63 246.80,440.35 C246.32,439.92 245.88,439.57 245.50,439.17 C242.00,435.61 242.00,428.60 242.02,332.78 C242.02,329.70 242.02,326.54 242.02,323.28 C242.04,220.25 242.14,214.29 243.86,210.50 C246.03,205.75 247.26,204.66 252.34,203.02 C258.07,201.18 264.38,203.19 267.56,207.88 L 270.00 211.46 L 270.00 322.98 C269.99,431.64 269.94,434.58 268.05,437.69 C266.98,439.44 265.12,441.40 263.91,442.05 ZM 181.81 441.97 C174.86,446.21 165.48,443.41 161.75,435.98 C160.12,432.73 160.00,425.26 160.00,323.22 C160.00,232.61 160.24,213.37 161.38,210.64 C165.61,200.50 179.48,199.51 185.74,208.90 L 188.00 212.30 L 188.00 322.68 C188.00,328.43 188.00,333.89 188.00,339.08 C188.01,429.33 188.01,437.62 184.03,440.63 C183.39,441.11 182.66,441.46 181.81,441.97 ZM 345.70 442.04 C339.40,445.89 330.80,443.81 326.46,437.39 C324.54,434.56 324.50,432.04 324.50,323.50 C324.50,214.68 324.54,212.44 326.48,209.23 C330.64,202.34 340.47,200.35 347.08,205.06 C347.72,205.51 348.28,205.85 348.77,206.27 C352.51,209.42 352.51,217.00 352.50,310.58 C352.50,314.72 352.50,319.02 352.50,323.50 C352.50,427.51 352.40,433.68 350.70,436.79 C349.71,438.61 347.46,440.97 345.70,442.04 ZM 188.67 67.33 C189.03,67.70 219.63,68.00 256.67,68.00 L 324.00 68.00 L 324.00 50.19 C324.00,36.39 323.68,31.95 322.58,30.44 C321.20,28.55 319.35,28.50 256.49,28.50 L 191.82 28.50 L 189.91 30.86 C188.20,32.97 188.00,34.97 188.00,49.94 C188.00,59.14 188.30,66.97 188.67,67.33 Z" fill="rgb(0,0,2)"/>
<path d="M 351.57 27.76 C352.57,33.27 352.97,40.82 352.98,52.25 L 352.99 57.44 L 352.74 47.75 C352.51,38.32 352.24,32.24 351.57,27.76 ZM 382.82 0.14 C343.53,0.27 325.65,0.60 327.00,1.14 C328.08,1.58 329.12,2.02 330.10,2.46 C329.00,2.06 327.88,1.72 326.75,1.44 C323.09,0.56 333.04,0.25 382.82,0.14 ZM 183.59 2.15 C184.36,1.81 185.17,1.48 186.00,1.14 C187.28,0.63 171.23,0.31 136.00,0.16 C180.36,0.29 188.95,0.61 185.78,1.48 C185.03,1.68 184.30,1.91 183.59,2.15 ZM 340.68 8.69 C343.53,11.02 345.74,13.67 347.61,16.89 C346.92,15.83 346.13,14.73 345.22,13.53 C343.89,11.78 342.36,10.15 340.68,8.69 ZM 163.11 20.95 C162.98,21.23 162.86,21.49 162.75,21.74 C162.87,21.46 163.00,21.18 163.14,20.88 C165.03,16.84 167.13,13.62 169.85,10.87 C167.18,13.70 164.93,17.06 163.11,20.95 Z" fill="rgb(106,106,106)"/>
<path d="M 0.00 256.00 L 0.00 0.00 L 94.25 0.07 C158.59,0.11 187.71,0.45 186.00,1.14 C173.44,6.20 167.68,11.18 163.14,20.88 C160.64,26.23 160.49,27.50 160.01,47.00 L 159.50 67.50 L 115.00 68.00 C71.45,68.49 70.43,68.55 67.00,70.68 C62.12,73.72 58.38,77.85 56.55,82.22 C55.28,85.27 55.00,90.73 55.02,112.72 C55.05,143.28 55.35,144.72 63.07,151.33 C68.44,155.93 75.16,158.00 84.67,158.00 L 91.98 158.00 L 92.24 323.25 L 92.50 488.50 L 95.16 493.54 C99.24,501.26 108.00,508.63 115.99,511.07 C117.37,511.48 91.84,511.87 59.25,511.91 L 0.00 512.00 L 0.00 256.00 ZM 397.00 511.06 C405.72,508.40 414.39,500.73 418.34,492.18 L 420.50 487.50 L 420.76 322.75 L 421.03 158.00 L 427.47 158.00 C441.31,158.00 449.98,153.89 455.00,144.95 L 457.50 140.50 L 457.50 112.50 C457.50,85.54 457.42,84.35 455.29,80.38 C452.80,75.71 448.04,71.34 443.28,69.35 C440.75,68.29 430.80,68.00 396.53,68.00 L 353.00 68.00 L 352.98 52.25 C352.96,33.94 351.96,25.61 349.07,19.64 C344.81,10.84 339.01,5.98 327.00,1.14 C325.29,0.45 354.24,0.11 418.25,0.07 L 512.00 0.00 L 512.00 256.00 L 512.00 512.00 L 453.25 511.91 C420.94,511.87 395.62,511.48 397.00,511.06 ZM 121.75 482.92 C120.09,481.96 120.00,473.13 120.00,319.95 L 120.00 158.00 L 256.50 158.00 L 393.00 158.00 L 393.00 319.35 C393.00,474.38 392.93,480.75 391.17,482.35 C389.49,483.87 378.73,484.00 256.42,483.97 C168.00,483.95 122.91,483.60 121.75,482.92 ZM 263.91 442.05 C265.12,441.40 266.98,439.44 268.05,437.69 C269.94,434.58 269.99,431.64 270.00,322.98 L 270.00 211.46 L 267.56 207.88 C264.38,203.19 258.07,201.18 252.34,203.02 C247.26,204.66 246.03,205.75 243.86,210.50 C242.14,214.29 242.04,220.25 242.02,323.28 C242.00,439.42 241.86,435.95 246.80,440.35 C251.61,444.63 257.91,445.26 263.91,442.05 ZM 181.81 441.97 C188.32,438.00 188.00,444.22 188.00,322.68 L 188.00 212.30 L 185.74 208.90 C179.48,199.51 165.61,200.50 161.38,210.64 C160.24,213.37 160.00,232.61 160.00,323.22 C160.00,425.26 160.12,432.73 161.75,435.98 C165.48,443.41 174.86,446.21 181.81,441.97 ZM 345.70 442.04 C347.46,440.97 349.71,438.61 350.70,436.79 C352.40,433.68 352.50,427.51 352.50,323.50 C352.50,204.27 352.72,209.07 347.08,205.06 C340.47,200.35 330.64,202.34 326.48,209.23 C324.54,212.44 324.50,214.68 324.50,323.50 C324.50,432.04 324.54,434.56 326.46,437.39 C330.80,443.81 339.40,445.89 345.70,442.04 ZM 83.67 129.34 C83.30,128.97 83.00,121.32 83.00,112.33 L 83.00 96.00 L 256.52 96.00 L 430.05 96.00 L 429.77 112.75 L 429.50 129.50 L 256.92 129.75 C162.00,129.89 84.04,129.70 83.67,129.34 ZM 188.67 67.33 C188.30,66.97 188.00,59.14 188.00,49.94 C188.00,34.97 188.20,32.97 189.91,30.86 L 191.82 28.50 L 256.49 28.50 C319.35,28.50 321.20,28.55 322.58,30.44 C323.68,31.95 324.00,36.39 324.00,50.19 L 324.00 68.00 L 256.67 68.00 C219.63,68.00 189.03,67.70 188.67,67.33 Z" fill="rgb(254,254,254)"/>
</g>
</svg>