<?xml version="1.0" encoding="UTF-8"?>
<svg version="1.1" xmlns="http://www.w3.org/2000/svg" width="48" height="48">
<path d="M0 0 C15.84 0 31.68 0 48 0 C48 15.84 48 31.68 48 48 C32.16 48 16.32 48 0 48 C0 32.16 0 16.32 0 0 Z " fill="#FFFFFF" transform="translate(0,0)"/>
<path d="M0 0 C4.30619632 2.23590963 7.26400997 4.40473228 9 9 C9.30032461 12.92567163 9.20982389 16.50882171 6.65625 19.65625 C2.5024342 23.15848685 -0.47458792 24.36005589 -5.90234375 24.28125 C-10.40067713 23.6781215 -13.15842298 21.06599756 -15.875 17.625 C-17.25784626 14.39835874 -17.49759088 12.48313618 -17 9 C-13.29753247 1.73746754 -8.09964145 -1.01245518 0 0 Z " fill="#000000" transform="translate(28,3)"/>
<path d="M0 0 C2.16300261 1.90082047 3.37351451 3.53562804 5 6 C5 7.65 5 9.3 5 11 C-5.56 11 -16.12 11 -27 11 C-25.82142857 2.75 -25.82142857 2.75 -21 -1 C-13.76036289 -4.37849732 -6.85080187 -3.87781238 0 0 Z " fill="#FFFFFF" transform="translate(35,37)"/>
<path d="M0 0 C3.10379159 2.64152476 5.69583667 5.08751002 7 9 C7.125 12.25 7.125 12.25 7 15 C5.35 15 3.7 15 2 15 C1.79375 13.948125 1.5875 12.89625 1.375 11.8125 C0.09412512 7.30199061 -2.16852264 5.60540461 -6 3 C-10.99273337 0.83648221 -16.72713939 1.59692747 -21.75 3.1875 C-25.22145467 5.12350357 -26.91765705 6.63621523 -29 10 C-29.78946609 12.68507329 -29.78946609 12.68507329 -30 15 C-31.65 15 -33.3 15 -35 15 C-35.50791521 9.66689031 -34.34625913 7.13879419 -31 3 C-21.91813222 -5.68700396 -10.65539051 -6.50694796 0 0 Z " fill="#000000" transform="translate(38,33)"/>
<path d="M0 0 C3.04325737 2.31552191 4.709599 3.80935592 5.625 7.5625 C5 10 5 10 2.875 12.3125 C-0.53643968 14.31486677 -2.11399608 14.72862574 -6 14 C-8.9375 11.875 -8.9375 11.875 -11 9 C-11.07119063 5.44046851 -10.7009249 3.77880545 -8.3125 1.125 C-5.21507874 -0.38185358 -3.40864082 -0.55651279 0 0 Z " fill="#FFFFFF" transform="translate(27,8)"/>
</svg>
